<svg xmlns="http://www.w3.org/2000/svg" viewBox="0 0 256 256" width="100%" height="100%">
  <rect width="256" height="256" rx="56" fill="#09090B" />
  <rect width="256" height="256" rx="56" fill="none" stroke="#27272A" stroke-width="2" />
  <rect x="4" y="4" width="248" height="248" rx="52" fill="none" stroke="#ffffff" stroke-opacity="0.05" stroke-width="1" />
  <g transform="translate(38, 43) scale(10)" shape-rendering="crispEdges">
    <g fill="#3F3F46">
      <rect x="3" y="0" width="3" height="1" />
      <rect x="12" y="0" width="3" height="1" />
      <rect x="2" y="1" width="5" height="1" />
      <rect x="11" y="1" width="5" height="1" />
      <rect x="1" y="2" width="7" height="1" />
      <rect x="10" y="2" width="7" height="1" />
      <rect x="1" y="3" width="1" height="1" />
      <rect x="16" y="3" width="1" height="1" />
      <rect x="0" y="4" width="1" height="6" />
      <rect x="17" y="4" width="1" height="6" />
      <rect x="1" y="10" width="1" height="1" />
      <rect x="16" y="10" width="1" height="1" />
      <rect x="1" y="11" width="17" height="1" />
      <rect x="1" y="12" width="2" height="2" />
      <rect x="4" y="12" width="10" height="3" />
      <rect x="15" y="12" width="2" height="2" />
      <rect x="2" y="14" width="1" height="1" />
      <rect x="15" y="14" width="1" height="1" />
      <rect x="4" y="15" width="4" height="1" />
      <rect x="10" y="15" width="4" height="1" />
      <rect x="5" y="16" width="2" height="1" />
      <rect x="11" y="16" width="2" height="1" />
    </g>
    <g fill="#E4E4E7">
      <rect x="2" y="3" width="14" height="1" />
      <rect x="1" y="4" width="16" height="2" />
      <rect x="1" y="6" width="3" height="2" />
      <rect x="6" y="6" width="6" height="2" />
      <rect x="14" y="6" width="3" height="2" />
      <rect x="1" y="8" width="16" height="1" />
      <rect x="1" y="9" width="2" height="1" />
      <rect x="5" y="9" width="3" height="1" />
      <rect x="10" y="9" width="3" height="1" />
      <rect x="15" y="9" width="2" height="1" />
      <rect x="2" y="10" width="6" height="1" />
      <rect x="10" y="10" width="6" height="1" />
    </g>
    <g fill="#09090B">
      <rect x="4" y="6" width="2" height="2" />
      <rect x="12" y="6" width="2" height="2" />
    </g>
    <g fill="#8B5CF6">
      <rect x="3" y="9" width="2" height="1" />
      <rect x="13" y="9" width="2" height="1" />
    </g>
    <g fill="#27272A">
      <rect x="8" y="9" width="2" height="2" />
    </g>
  </g>
</svg>
